<svg width="314" height="138" viewBox="0 0 314 138" fill="none" xmlns="http://www.w3.org/2000/svg">
<path d="M169.678 5.96631H146.9V18.8677H169.678V5.96631Z" fill="#DAA412"/>
<path opacity="0.1" d="M169.678 5.96631H146.9V18.8677H169.678V5.96631Z" fill="#DAA412"/>
<path d="M172.893 1.62598H143.68V10.0732H172.893V1.62598Z" fill="#DAA412"/>
<path d="M118.757 18.727L112.553 24.9312L122.354 34.7325L128.558 28.5283L118.757 18.727Z" fill="#DAA412"/>
<path opacity="0.1" d="M118.757 18.727L112.553 24.9312L122.354 34.7325L128.558 28.5283L118.757 18.727Z" fill="#DAA412"/>
<path d="M117.28 13.5975L107.424 23.4536L113.828 29.8582L123.685 20.0021L117.28 13.5975Z" fill="#DAA412"/>
<path d="M188.024 28.5146L194.229 34.7188L204.03 24.9174L197.826 18.7132L188.024 28.5146Z" fill="#DAA412"/>
<path opacity="0.1" d="M188.024 28.5146L194.229 34.7188L204.03 24.9174L197.826 18.7132L188.024 28.5146Z" fill="#DAA412"/>
<path d="M192.87 20.0067L202.727 29.8628L209.131 23.4582L199.275 13.6021L192.87 20.0067Z" fill="#DAA412"/>
<path d="M212.639 83.0468C218.391 53.0163 198.71 24.0093 168.68 18.2578C138.651 12.5064 109.645 32.1883 103.893 62.2188C98.1412 92.2493 117.822 121.256 147.852 127.008C177.881 132.759 206.887 113.077 212.639 83.0468Z" fill="#DAA412"/>
<path d="M157.615 124.527C186.792 124.527 210.445 100.874 210.445 71.6967C210.445 42.5195 186.792 18.8667 157.615 18.8667C128.438 18.8667 104.785 42.5195 104.785 71.6967C104.785 100.874 128.438 124.527 157.615 124.527Z" fill="#DAA412"/>
<path opacity="0.1" d="M157.615 124.527C186.792 124.527 210.445 100.874 210.445 71.6967C210.445 42.5195 186.792 18.8667 157.615 18.8667C128.438 18.8667 104.785 42.5195 104.785 71.6967C104.785 100.874 128.438 124.527 157.615 124.527Z" fill="#DAA412"/>
<path d="M204.632 77.5105C207.465 51.8971 188.997 28.8373 163.383 26.0052C137.77 23.173 114.71 41.6408 111.878 67.2542C109.046 92.8676 127.514 115.927 153.127 118.759C178.741 121.592 201.8 103.124 204.632 77.5105Z" fill="white"/>
<path d="M158.737 29.0938H157.836V36.1671H158.737V29.0938Z" fill="#C7C7C7"/>
<path d="M137.022 34.6445L136.24 35.0962L139.777 41.2217L140.559 40.7701L137.022 34.6445Z" fill="#C7C7C7"/>
<path d="M121.068 50.3546L120.617 51.1353L126.743 54.6726L127.194 53.892L121.068 50.3546Z" fill="#C7C7C7"/>
<path d="M122.083 71.918H115.012V72.8194H122.083V71.918Z" fill="#C7C7C7"/>
<path d="M126.715 90.0436L120.588 93.5781L121.038 94.3589L127.165 90.8244L126.715 90.0436Z" fill="#C7C7C7"/>
<path d="M139.8 103.462L136.268 109.59L137.05 110.041L140.583 103.913L139.8 103.462Z" fill="#C7C7C7"/>
<path d="M158.737 108.571H157.836V115.645H158.737V108.571Z" fill="#C7C7C7"/>
<path d="M176.765 103.45L175.982 103.902L179.518 110.026L180.3 109.574L176.765 103.45Z" fill="#C7C7C7"/>
<path d="M189.835 90.0627L189.385 90.8433L195.51 94.3799L195.961 93.5993L189.835 90.0627Z" fill="#C7C7C7"/>
<path d="M201.564 71.918H194.49V72.8194H201.564V71.918Z" fill="#C7C7C7"/>
<path d="M195.517 50.3607L189.391 53.896L189.841 54.6767L195.967 51.1414L195.517 50.3607Z" fill="#C7C7C7"/>
<path d="M179.561 34.6853L176.025 40.8115L176.808 41.2631L180.344 35.1368L179.561 34.6853Z" fill="#C7C7C7"/>
<path d="M158.619 38.6132L160.694 75.144L156 75.0817L157.346 38.5962L158.619 38.6132Z" fill="#263238"/>
<path d="M159.895 72.3696C159.895 73.254 159.178 73.9721 158.292 73.9721C157.408 73.9721 156.689 73.254 156.689 72.3696C156.689 71.4852 157.408 70.7671 158.292 70.7671C159.176 70.7671 159.895 71.4852 159.895 72.3696Z" fill="#DAA412"/>
<path d="M57.5268 127.455V43.7991C57.5268 40.4038 57.6211 36.2855 57.8097 31.4441C58.0612 26.6026 58.2813 22.4843 58.4699 19.089H57.6211C56.0492 22.1699 54.383 25.1879 52.6225 28.1431C50.9248 31.0354 49.1643 34.0848 47.3409 37.2915L19.3298 78.7895H91.574V93.1251H0.75V81.1473L54.2258 0.603516H74.4089V127.455H57.5268Z" fill="#000D1F"/>
<path d="M279.203 127.455V43.7991C279.203 40.4038 279.297 36.2855 279.485 31.4441C279.737 26.6026 279.957 22.4843 280.146 19.089H279.297C277.725 22.1699 276.059 25.1879 274.298 28.1431C272.601 31.0354 270.84 34.0848 269.017 37.2915L241.006 78.7895H313.25V93.1251H222.426V81.1473L275.902 0.603516H296.085V127.455H279.203Z" fill="#000D1F"/>
</svg>
